<svg id="Capa_1" enable-background="new 0 0 495.37 495.37" height="512" viewBox="0 0 495.37 495.37" width="512" xmlns="http://www.w3.org/2000/svg"><g><path d="m199.935 83.88c0-13.19 10.69-23.88 23.88-23.88 13.18 0 23.87 10.69 23.87 23.88v60.45 173.03 32.12c0 9.47-3.13 18.67-8.9 26.18l-12.34 16.05c-1.71 2.21-2.63 4.93-2.63 7.73v81.308c0 8.076-6.547 14.622-14.622 14.622h-142.176c-8.076 0-14.622-6.547-14.622-14.622v-102.458c0-2.32-.63-4.59-1.82-6.58l-26.93-44.88c-3.76-6.27-5.74-13.44-5.74-20.74v-150.097c0-14.043 11.058-25.914 25.099-26.188 4.842-.094 9.384 1.155 13.281 3.415l.39-.68v-77.66c0-13.19 10.69-23.88 23.87-23.88 6.59 0 12.57 2.67 16.89 6.99s6.99 10.3 6.99 16.89v-30.42c0-13.123 10.339-24.23 23.46-24.456 6.756-.116 12.889 2.575 17.3 6.986 4.32 4.32 6.99 10.3 6.99 16.89v36c0-13.19 10.69-23.88 23.88-23.88 6.6 0 12.56 2.67 16.89 6.99 4.32 4.32 6.99 10.3 6.99 16.89z" fill="#ffcebf"/></g><g><path d="m115.254 470.524c-19.236 0-34.83-15.594-34.83-34.83v-72.25c0-2.32-.63-4.59-1.82-6.58l-26.93-44.88c-3.76-6.27-5.74-13.44-5.74-20.74v-150.68c0-3.68.804-7.188 2.201-10.352-1.493-.272-3.049-.412-4.621-.412-14.15 0-25.61 11.47-25.61 25.61v150.68c0 7.3 1.98 14.47 5.74 20.74l26.93 44.88c1.19 1.99 1.82 4.26 1.82 6.58v102.33c0 8.146 6.604 14.751 14.751 14.751h141.919c8.146 0 14.751-6.604 14.751-14.751v-10.096z" fill="#ffb09e"/></g><g><g><path d="m180.316 36.378c-1.38-.248-2.808-.378-4.261-.378-12.47 0-22.7 9.557-23.78 21.746v141.64h29.949c-1.253-3.939-1.92-8.057-1.92-12.224v-150.681c0-.032.012-.07.012-.103z" fill="#ffb09e"/></g><g><path d="m295.435 83.88c0-13.19-10.69-23.88-23.88-23.88-13.18 0-23.87 10.69-23.87 23.88v60.45 173.03 32.12c0 9.47 3.13 18.67 8.9 26.18l12.34 16.05c1.71 2.21 2.63 4.93 2.63 7.73v78.939c0 9.384 7.607 16.991 16.991 16.991h137.438c9.384 0 16.991-7.607 16.991-16.991v-100.089c0-2.32.63-4.59 1.82-6.58l26.93-44.88c3.76-6.27 5.74-13.44 5.74-20.74v-150.68c0-14.14-11.46-25.61-25.61-25.61-4.65 0-9.01 1.24-12.77 3.42l-.39-.68v-77.131c0-13.083-10.299-24.142-23.38-24.404-6.783-.136-12.953 2.558-17.38 6.985-4.32 4.32-6.99 10.3-6.99 16.89v-30.461c0-13.1-10.322-24.168-23.419-24.415-6.772-.128-12.92 2.565-17.341 6.986-4.32 4.32-6.99 10.3-6.99 16.89v36c0-13.19-10.69-23.88-23.88-23.88-6.6 0-12.56 2.67-16.89 6.99-4.32 4.32-6.99 10.3-6.99 16.89z" fill="#ffcebf"/></g><g fill="#ffb09e"><g><path d="m414.724 31.008v4.116c0-1.404.128-2.779.361-4.118-.12-.001-.24.002-.361.002z"/><path d="m312.325 475.614c-9.384 0-16.991-7.607-16.991-16.991v-78.939c0-2.8-.92-5.52-2.63-7.73l-12.34-16.05c-5.77-7.51-8.9-16.71-8.9-26.18v-32.12-173.03-60.45c0-1.405.128-2.779.361-4.117-.09-.001-.179-.007-.27-.007-13.18 0-23.87 10.69-23.87 23.88v60.45 173.03 32.12c0 9.47 3.13 18.67 8.9 26.18l12.34 16.05c1.71 2.21 2.63 4.93 2.63 7.73v78.939c0 9.384 7.607 16.991 16.991 16.991h137.438c9.384 0 16.991-7.607 16.991-16.991v-2.765z"/></g><path d="m371.212 8.688c0-2.807.482-5.514 1.324-8.044-1.608-.386-3.29-.607-5.01-.64-6.772-.128-12.92 2.565-17.341 6.986-4.32 4.32-6.99 10.3-6.99 16.89 0 0-.009 35.672-.012 35.507v109.465c16.2 0 29.274-13.251 29.046-29.449-.668-47.505-1.017-130.715-1.017-130.715z"/><path d="m324.455 166.232c-.584-48.29-.889-120.922-.889-120.922 0-3.017.542-5.924 1.507-8.614-1.846-.458-3.77-.696-5.758-.696-6.6 0-12.56 2.67-16.89 6.99-1.479 1.479-2.758 3.156-3.809 4.981-1.964 3.624-3.079 7.775-3.079 12.185v106.076z"/><path d="m228.086 168.852v-108.463c-1.386-.251-2.812-.389-4.271-.389-12.373 0-22.546 9.407-23.758 21.46v87.392z"/></g><path d="m259.572 312.482 82.366-90.373c20.833-22.858 20.018-58.056-1.851-79.925l-.193-.193c-22.606-22.606-59.258-22.606-81.864 0l-10.337 10.337-10.547-10.504c-22.62-22.528-59.207-22.491-81.781.083-21.981 21.981-22.677 57.398-1.576 80.225l83.588 90.427c5.992 6.483 16.249 6.447 22.195-.077z" fill="#fd8087"/><g><path d="m201.599 222.133c-21.101-22.827-20.405-58.244 1.576-80.225 5.073-5.073 10.858-8.998 17.029-11.794-21.329-9.667-47.309-5.737-64.84 11.794-21.981 21.981-22.677 57.398-1.576 80.225l83.588 90.427c5.992 6.483 16.249 6.446 22.196-.078l12.681-13.914z" fill="#fe646f"/></g><path d="m415.315 31.005c-6.783-.136-12.953 2.558-17.38 6.985-3.868 3.868-6.407 9.07-6.897 14.846v116.016c15.48 0 28.03-12.549 28.03-28.03v-109.055c0-.127.008-.251.01-.377-1.223-.226-2.479-.359-3.763-.385z" fill="#ffb09e"/><path d="m132.592 10.051c0-3.267.649-6.405 1.769-9.28-2.06-.538-4.239-.806-6.476-.767-3.927.068-7.602 1.116-10.828 2.896-7.484 4.471-12.495 12.649-12.495 21.997v141.335c16.166 0 29.206-13.217 28.993-29.382-.633-48.014-.963-126.799-.963-126.799z" fill="#ffb09e"/></g><path d="m129.667 309.956-.009 1.254c-.025 3.411 2.733 6.189 6.144 6.189 3.376 0 6.119-2.723 6.144-6.099l.154-20.91c.21-28.511-17.914-54.314-45.154-62.734-.668-.207-1.342-.403-2.02-.589l-13.37-3.67v-87.626c0-13.899-11.074-25.204-24.88-25.592v22.363l-.388.676c7.669 4.425 12.835 12.703 12.835 22.193v83.021c0 2.72 1.818 5.105 4.441 5.825l8.929 2.451c.631.173 1.258.355 1.881.547 27.293 8.368 45.502 34.153 45.293 62.701z" fill="#ffb09e"/><g><path d="m451.859 129.799c-14.144 0-25.611 11.466-25.611 25.611v87.626l-13.37 3.67c-.631.173-1.258.355-1.881.547-27.294 8.37-45.503 34.156-45.293 62.703l.067 9.166c.024 3.296 2.703 5.956 6 5.956h3.098c3.331 0 6.024-2.713 6-6.044-.21-28.511 17.914-54.314 45.154-62.734.668-.207 1.342-.403 2.02-.589l7.735-2.123c3.328-.914 5.635-3.939 5.635-7.39v-81.783c0-14.144 11.466-25.611 25.611-25.611 1.604 0 3.171.155 4.693.437-4.697-5.762-11.847-9.442-19.858-9.442z" fill="#ffb09e"/></g><path d="m70.467 133.681c8.004 0 14.476-6.522 14.412-14.525-.313-39.571-.475-78.063-.475-78.063 0-3.32.659-6.497 1.813-9.41-1.819-.443-3.718-.683-5.672-.683-5.704 0-10.939 2.005-15.046 5.345-3.013 2.538-5.431 5.756-7.019 9.42-1.161 2.809-1.805 5.886-1.805 9.115l-.213 78.801z" fill="#ffb09e"/></svg>